<?xml version="1.0" encoding="UTF-8" standalone="no"?>
<!DOCTYPE svg PUBLIC "-//W3C//DTD SVG 1.1//EN"
 "http://www.w3.org/Graphics/SVG/1.1/DTD/svg11.dtd">
<!-- Generated by graphviz version 2.40.1 (20161225.0304)
 -->
<!-- Title: trie Pages: 1 -->
<svg width="134pt" height="476pt"
 viewBox="0.00 0.00 134.00 476.00" xmlns="http://www.w3.org/2000/svg" xmlns:xlink="http://www.w3.org/1999/xlink">
<g id="graph0" class="graph" transform="scale(1 1) rotate(0) translate(4 472)">
<title>trie</title>
<polygon fill="#ffffff" stroke="transparent" points="-4,4 -4,-472 130,-472 130,4 -4,4"/>
<!-- 0 _ -->
<g id="node1" class="node">
<title>0 _</title>
<ellipse fill="none" stroke="#000000" cx="63" cy="-450" rx="27" ry="18"/>
<text text-anchor="middle" x="63" y="-445.8" font-family="Times,serif" font-size="14.00" fill="#000000">0 _</text>
</g>
<!-- 1 h -->
<g id="node2" class="node">
<title>1 h</title>
<ellipse fill="none" stroke="#000000" cx="63" cy="-378" rx="27" ry="18"/>
<text text-anchor="middle" x="63" y="-373.8" font-family="Times,serif" font-size="14.00" fill="#000000">1 h</text>
</g>
<!-- 0 _&#45;&gt;1 h -->
<g id="edge1" class="edge">
<title>0 _&#45;&gt;1 h</title>
<path fill="none" stroke="#000000" d="M63,-431.8314C63,-424.131 63,-414.9743 63,-406.4166"/>
<polygon fill="#000000" stroke="#000000" points="66.5001,-406.4132 63,-396.4133 59.5001,-406.4133 66.5001,-406.4132"/>
</g>
<!-- 2 e -->
<g id="node3" class="node">
<title>2 e</title>
<ellipse fill="none" stroke="#000000" cx="63" cy="-306" rx="27" ry="18"/>
<text text-anchor="middle" x="63" y="-301.8" font-family="Times,serif" font-size="14.00" fill="#000000">2 e</text>
</g>
<!-- 1 h&#45;&gt;2 e -->
<g id="edge2" class="edge">
<title>1 h&#45;&gt;2 e</title>
<path fill="none" stroke="#000000" d="M63,-359.8314C63,-352.131 63,-342.9743 63,-334.4166"/>
<polygon fill="#000000" stroke="#000000" points="66.5001,-334.4132 63,-324.4133 59.5001,-334.4133 66.5001,-334.4132"/>
</g>
<!-- 3 l -->
<g id="node4" class="node">
<title>3 l</title>
<ellipse fill="none" stroke="#000000" cx="63" cy="-234" rx="27" ry="18"/>
<text text-anchor="middle" x="63" y="-229.8" font-family="Times,serif" font-size="14.00" fill="#000000">3 l</text>
</g>
<!-- 2 e&#45;&gt;3 l -->
<g id="edge3" class="edge">
<title>2 e&#45;&gt;3 l</title>
<path fill="none" stroke="#000000" d="M63,-287.8314C63,-280.131 63,-270.9743 63,-262.4166"/>
<polygon fill="#000000" stroke="#000000" points="66.5001,-262.4132 63,-252.4133 59.5001,-262.4133 66.5001,-262.4132"/>
</g>
<!-- 4 l -->
<g id="node5" class="node">
<title>4 l</title>
<ellipse fill="none" stroke="#000000" cx="27" cy="-162" rx="27" ry="18"/>
<text text-anchor="middle" x="27" y="-157.8" font-family="Times,serif" font-size="14.00" fill="#000000">4 l</text>
</g>
<!-- 3 l&#45;&gt;4 l -->
<g id="edge4" class="edge">
<title>3 l&#45;&gt;4 l</title>
<path fill="none" stroke="#000000" d="M54.2854,-216.5708C50.0403,-208.0807 44.8464,-197.6929 40.1337,-188.2674"/>
<polygon fill="#000000" stroke="#000000" points="43.237,-186.6477 35.6343,-179.2687 36.976,-189.7782 43.237,-186.6477"/>
</g>
<!-- 4 i -->
<g id="node7" class="node">
<title>4 i</title>
<ellipse fill="none" stroke="#000000" cx="99" cy="-162" rx="27" ry="18"/>
<text text-anchor="middle" x="99" y="-157.8" font-family="Times,serif" font-size="14.00" fill="#000000">4 i</text>
</g>
<!-- 3 l&#45;&gt;4 i -->
<g id="edge6" class="edge">
<title>3 l&#45;&gt;4 i</title>
<path fill="none" stroke="#000000" d="M71.7146,-216.5708C75.9597,-208.0807 81.1536,-197.6929 85.8663,-188.2674"/>
<polygon fill="#000000" stroke="#000000" points="89.024,-189.7782 90.3657,-179.2687 82.763,-186.6477 89.024,-189.7782"/>
</g>
<!-- 5 o -->
<g id="node6" class="node">
<title>5 o</title>
<ellipse fill="none" stroke="#000000" cx="27" cy="-90" rx="27" ry="18"/>
<text text-anchor="middle" x="27" y="-85.8" font-family="Times,serif" font-size="14.00" fill="#000000">5 o</text>
</g>
<!-- 4 l&#45;&gt;5 o -->
<g id="edge5" class="edge">
<title>4 l&#45;&gt;5 o</title>
<path fill="none" stroke="#000000" d="M27,-143.8314C27,-136.131 27,-126.9743 27,-118.4166"/>
<polygon fill="#000000" stroke="#000000" points="30.5001,-118.4132 27,-108.4133 23.5001,-118.4133 30.5001,-118.4132"/>
</g>
<!-- 5 u -->
<g id="node8" class="node">
<title>5 u</title>
<ellipse fill="none" stroke="#000000" cx="99" cy="-90" rx="27" ry="18"/>
<text text-anchor="middle" x="99" y="-85.8" font-family="Times,serif" font-size="14.00" fill="#000000">5 u</text>
</g>
<!-- 4 i&#45;&gt;5 u -->
<g id="edge7" class="edge">
<title>4 i&#45;&gt;5 u</title>
<path fill="none" stroke="#000000" d="M99,-143.8314C99,-136.131 99,-126.9743 99,-118.4166"/>
<polygon fill="#000000" stroke="#000000" points="102.5001,-118.4132 99,-108.4133 95.5001,-118.4133 102.5001,-118.4132"/>
</g>
<!-- 6 m -->
<g id="node9" class="node">
<title>6 m</title>
<ellipse fill="none" stroke="#000000" cx="99" cy="-18" rx="27" ry="18"/>
<text text-anchor="middle" x="99" y="-13.8" font-family="Times,serif" font-size="14.00" fill="#000000">6 m</text>
</g>
<!-- 5 u&#45;&gt;6 m -->
<g id="edge8" class="edge">
<title>5 u&#45;&gt;6 m</title>
<path fill="none" stroke="#000000" d="M99,-71.8314C99,-64.131 99,-54.9743 99,-46.4166"/>
<polygon fill="#000000" stroke="#000000" points="102.5001,-46.4132 99,-36.4133 95.5001,-46.4133 102.5001,-46.4132"/>
</g>
</g>
</svg>
